<?xml version='1.0' encoding='UTF-8' standalone='no'?>
<svg height="314pt" viewBox="0 0 418 314" width="418pt" xmlns="http://www.w3.org/2000/svg" xmlns:xlink="http://www.w3.org/1999/xlink">
 <title>Figure 1</title>
 <desc>
Creator: GL2PS 1.4.2, (C) 1999-2020 C. Geuzaine
For: Octave
CreationDate: Wed May 29 19:24:58 2024
</desc>
 <defs/>
 <polygon fill="#ffffff" points="0,0 418,0 418,314 0,314"/>
 <g>
  <polygon fill="#ffffff" points="0,314 418,314 418,0 0,0" shape-rendering="crispEdges"/>
  <clipPath id="cp00418314">
   <polygon points="0,314 418,314 418,0 0,0"/>
  </clipPath>
  <g clip-path="url(#cp00418314)">
   <polygon fill="#ffffff" points="54.4343,279.499 378.946,279.499 378.946,23.5533 54.4343,23.5533" shape-rendering="crispEdges"/>
   <polyline fill="none" points="54.4343,279.499 54.4343,276.255" stroke="#262626" stroke-linecap="butt" stroke-linejoin="miter" stroke-width="0.5"/>
   <polyline fill="none" points="54.4343,23.5533 54.4343,26.7977" stroke="#262626" stroke-linecap="butt" stroke-linejoin="miter" stroke-width="0.5"/>
   <polyline fill="none" points="135.562,279.499 135.562,276.255" stroke="#262626" stroke-linecap="butt" stroke-linejoin="miter" stroke-width="0.5"/>
   <polyline fill="none" points="135.562,23.5533 135.562,26.7977" stroke="#262626" stroke-linecap="butt" stroke-linejoin="miter" stroke-width="0.5"/>
   <polyline fill="none" points="216.69,279.499 216.69,276.255" stroke="#262626" stroke-linecap="butt" stroke-linejoin="miter" stroke-width="0.5"/>
   <polyline fill="none" points="216.69,23.5533 216.69,26.7977" stroke="#262626" stroke-linecap="butt" stroke-linejoin="miter" stroke-width="0.5"/>
   <polyline fill="none" points="297.818,279.499 297.818,276.255" stroke="#262626" stroke-linecap="butt" stroke-linejoin="miter" stroke-width="0.5"/>
   <polyline fill="none" points="297.818,23.5533 297.818,26.7977" stroke="#262626" stroke-linecap="butt" stroke-linejoin="miter" stroke-width="0.5"/>
   <polyline fill="none" points="378.946,279.499 378.946,276.255" stroke="#262626" stroke-linecap="butt" stroke-linejoin="miter" stroke-width="0.5"/>
   <polyline fill="none" points="378.946,23.5533 378.946,26.7977" stroke="#262626" stroke-linecap="butt" stroke-linejoin="miter" stroke-width="0.5"/>
   <g font-family="FreeSans" font-size="10" font-style="normal" font-weight="normal" transform="translate(51.4343,294.998) rotate(-0,3,-8)" xml:space="preserve">
    <text fill="rgb(38,38,38)" x="0 " y="-0">0</text>
   </g>
   <g font-family="FreeSans" font-size="10" font-style="normal" font-weight="normal" transform="translate(126.562,294.998) rotate(-0,9,-8)" xml:space="preserve">
    <text fill="rgb(38,38,38)" x="0 6 12 " y="-0">500</text>
   </g>
   <g font-family="FreeSans" font-size="10" font-style="normal" font-weight="normal" transform="translate(204.69,294.998) rotate(-0,12,-8)" xml:space="preserve">
    <text fill="rgb(38,38,38)" x="0 6 12 18 " y="-0">1000</text>
   </g>
   <g font-family="FreeSans" font-size="10" font-style="normal" font-weight="normal" transform="translate(285.818,294.998) rotate(-0,12,-8)" xml:space="preserve">
    <text fill="rgb(38,38,38)" x="0 6 12 18 " y="-0">1500</text>
   </g>
   <g font-family="FreeSans" font-size="10" font-style="normal" font-weight="normal" transform="translate(366.946,294.998) rotate(-0,12,-8)" xml:space="preserve">
    <text fill="rgb(38,38,38)" x="0 6 12 18 " y="-0">2000</text>
   </g>
   <polyline fill="none" points="54.4343,279.499 57.6745,279.499" stroke="#262626" stroke-linecap="butt" stroke-linejoin="miter" stroke-width="0.5"/>
   <polyline fill="none" points="378.946,279.499 375.706,279.499" stroke="#262626" stroke-linecap="butt" stroke-linejoin="miter" stroke-width="0.5"/>
   <polyline fill="none" points="54.4343,242.935 57.6745,242.935" stroke="#262626" stroke-linecap="butt" stroke-linejoin="miter" stroke-width="0.5"/>
   <polyline fill="none" points="378.946,242.935 375.706,242.935" stroke="#262626" stroke-linecap="butt" stroke-linejoin="miter" stroke-width="0.5"/>
   <polyline fill="none" points="54.4343,206.372 57.6745,206.372" stroke="#262626" stroke-linecap="butt" stroke-linejoin="miter" stroke-width="0.5"/>
   <polyline fill="none" points="378.946,206.372 375.706,206.372" stroke="#262626" stroke-linecap="butt" stroke-linejoin="miter" stroke-width="0.5"/>
   <polyline fill="none" points="54.4343,169.808 57.6745,169.808" stroke="#262626" stroke-linecap="butt" stroke-linejoin="miter" stroke-width="0.5"/>
   <polyline fill="none" points="378.946,169.808 375.706,169.808" stroke="#262626" stroke-linecap="butt" stroke-linejoin="miter" stroke-width="0.5"/>
   <polyline fill="none" points="54.4343,133.244 57.6745,133.244" stroke="#262626" stroke-linecap="butt" stroke-linejoin="miter" stroke-width="0.5"/>
   <polyline fill="none" points="378.946,133.244 375.706,133.244" stroke="#262626" stroke-linecap="butt" stroke-linejoin="miter" stroke-width="0.5"/>
   <polyline fill="none" points="54.4343,96.6807 57.6745,96.6807" stroke="#262626" stroke-linecap="butt" stroke-linejoin="miter" stroke-width="0.5"/>
   <polyline fill="none" points="378.946,96.6807 375.706,96.6807" stroke="#262626" stroke-linecap="butt" stroke-linejoin="miter" stroke-width="0.5"/>
   <polyline fill="none" points="54.4343,60.117 57.6745,60.117" stroke="#262626" stroke-linecap="butt" stroke-linejoin="miter" stroke-width="0.5"/>
   <polyline fill="none" points="378.946,60.117 375.706,60.117" stroke="#262626" stroke-linecap="butt" stroke-linejoin="miter" stroke-width="0.5"/>
   <polyline fill="none" points="54.4343,23.5533 57.6745,23.5533" stroke="#262626" stroke-linecap="butt" stroke-linejoin="miter" stroke-width="0.5"/>
   <polyline fill="none" points="378.946,23.5533 375.706,23.5533" stroke="#262626" stroke-linecap="butt" stroke-linejoin="miter" stroke-width="0.5"/>
   <g font-family="FreeSans" font-size="10" font-style="normal" font-weight="normal" transform="translate(28.4418,283.499) rotate(-0,21,-4)" xml:space="preserve">
    <text fill="rgb(38,38,38)" x="0 3 9 15 " y="-0">-300</text>
   </g>
   <g font-family="FreeSans" font-size="10" font-style="normal" font-weight="normal" transform="translate(28.4418,246.935) rotate(-0,21,-4)" xml:space="preserve">
    <text fill="rgb(38,38,38)" x="0 3 9 15 " y="-0">-200</text>
   </g>
   <g font-family="FreeSans" font-size="10" font-style="normal" font-weight="normal" transform="translate(28.4418,210.372) rotate(-0,21,-4)" xml:space="preserve">
    <text fill="rgb(38,38,38)" x="0 3 9 15 " y="-0">-100</text>
   </g>
   <g font-family="FreeSans" font-size="10" font-style="normal" font-weight="normal" transform="translate(43.4418,173.808) rotate(-0,6,-4)" xml:space="preserve">
    <text fill="rgb(38,38,38)" x="0 " y="-0">0</text>
   </g>
   <g font-family="FreeSans" font-size="10" font-style="normal" font-weight="normal" transform="translate(31.4418,137.244) rotate(-0,18,-4)" xml:space="preserve">
    <text fill="rgb(38,38,38)" x="0 6 12 " y="-0">100</text>
   </g>
   <g font-family="FreeSans" font-size="10" font-style="normal" font-weight="normal" transform="translate(31.4418,100.681) rotate(-0,18,-4)" xml:space="preserve">
    <text fill="rgb(38,38,38)" x="0 6 12 " y="-0">200</text>
   </g>
   <g font-family="FreeSans" font-size="10" font-style="normal" font-weight="normal" transform="translate(31.4418,64.117) rotate(-0,18,-4)" xml:space="preserve">
    <text fill="rgb(38,38,38)" x="0 6 12 " y="-0">300</text>
   </g>
   <g font-family="FreeSans" font-size="10" font-style="normal" font-weight="normal" transform="translate(31.4418,27.5533) rotate(-0,18,-4)" xml:space="preserve">
    <text fill="rgb(38,38,38)" x="0 6 12 " y="-0">400</text>
   </g>
   <polyline fill="none" points="54.4343,279.499 378.946,279.499" stroke="#262626" stroke-dasharray="16,0" stroke-linecap="square" stroke-linejoin="miter" stroke-width="0.5"/>
   <polyline fill="none" points="54.4343,23.5533 378.946,23.5533" stroke="#262626" stroke-dasharray="16,0" stroke-linecap="square" stroke-linejoin="miter" stroke-width="0.5"/>
   <polyline fill="none" points="54.4343,279.499 54.4343,23.5533" stroke="#262626" stroke-dasharray="16,0" stroke-linecap="square" stroke-linejoin="miter" stroke-width="0.5"/>
   <polyline fill="none" points="378.946,279.499 378.946,23.5533" stroke="#262626" stroke-dasharray="16,0" stroke-linecap="square" stroke-linejoin="miter" stroke-width="0.5"/>
   <polyline fill="none" points="54.5965,172.667 54.7588,172.667 54.9211,182.15 55.0833,182.15 55.2456,172.667 55.4078,187.833 55.5701,182.15 55.7323,177.391 55.8946,182.15 56.0568,182.15 56.2191,177.391 56.3814,182.15 56.5436,182.15 56.7059,182.15 56.8681,182.15 57.0304,182.15 57.1926,177.391 57.3549,166.984 57.5172,177.391 57.6794,187.833 57.8417,172.667 58.0039,182.15 58.1662,172.667 58.3284,177.391 58.4907,177.391 58.6529,172.667 58.8152,177.391 58.9775,172.667 59.1397,182.15 59.302,177.391 59.4642,177.391 59.6265,166.984 59.7887,177.391 59.951,182.15 60.1133,172.667 60.2755,172.667 60.4378,177.391 60.6,172.667 60.7623,172.667 60.9245,177.391 61.0868,172.667 61.249,166.984 61.4113,182.15 61.5736,177.391 61.7358,177.391 61.8981,172.667 62.0603,162.225 62.2226,177.391 62.3848,172.667 62.5471,166.984 62.7093,172.667 62.8716,166.984 63.0339,172.667 63.1961,172.667 63.3584,166.984 63.5206,172.667 63.6829,172.667 63.8451,166.984 64.0074,172.667 64.1696,166.984 64.3319,177.391 64.4942,166.984 64.6564,162.225 64.8187,162.225 64.9809,172.667 65.1432,172.667 65.3055,177.391 65.4677,166.984 65.63,177.391 65.7922,182.15 65.9545,177.391 66.1167,177.391 66.279,172.667 66.4412,172.667 66.6035,177.391 66.7658,172.667 66.928,166.984 67.0903,166.984 67.2525,166.984 67.4148,172.667 67.577,177.391 67.7393,177.391 67.9015,182.15 68.0638,177.391 68.2261,166.984 68.3883,182.15 68.5506,172.667 68.7128,172.667 68.8751,172.667 69.0373,172.667 69.1996,166.984 69.3618,166.984 69.5241,177.391 69.6864,166.984 69.8486,162.225 70.0109,166.984 70.1731,177.391 70.3354,166.984 70.4976,166.984 70.6599,172.667 70.8221,172.667 70.9844,172.667 71.1467,166.984 71.3089,172.667 71.4712,177.391 71.6334,166.984 71.7957,177.391 71.9579,177.391 72.1202,182.15 72.2824,177.391 72.4447,172.667 72.607,172.667 72.7692,172.667 72.9315,166.984 73.0937,162.225 73.256,162.225 73.4183,172.667 73.5805,172.667 73.7428,166.984 73.905,166.984 74.0673,166.984 74.2295,172.667 74.3918,166.984 74.554,172.667 74.7163,177.391 74.8786,172.667 75.0408,166.984 75.2031,172.667 75.3653,166.984 75.5276,172.667 75.6898,166.984 75.8521,172.667 76.0143,172.667 76.1766,177.391 76.3389,172.667 76.5011,162.225 76.6634,177.391 76.8256,172.667 76.9879,182.15 77.1501,172.667 77.3124,172.667 77.4746,182.15 77.6369,177.391 77.7992,177.391 77.9614,182.15 78.1237,177.391 78.2859,172.667 78.4482,162.225 78.6104,177.391 78.7727,172.667 78.9349,172.667 79.0972,177.391 79.2595,172.667 79.4217,166.984 79.584,172.667 79.7462,166.984 79.9085,172.667 80.0707,177.391 80.233,172.667 80.3953,177.391 80.5575,177.391 80.7198,172.667 80.882,177.391 81.0443,172.667 81.2065,172.667 81.3688,177.391 81.5311,172.667 81.6933,166.984 81.8556,172.667 82.0178,177.391 82.1801,172.667 82.3423,172.667 82.5046,172.667 82.6668,177.391 82.8291,172.667 82.9914,166.984 83.1536,166.984 83.3159,166.984 83.4781,172.667 83.6404,166.984 83.8026,172.667 83.9649,172.667 84.1271,172.667 84.2894,172.667 84.4517,172.667 84.6139,166.984 84.7762,172.667 84.9384,177.391 85.1007,166.984 85.2629,166.984 85.4252,162.225 85.5874,177.391 85.7497,177.391 85.912,172.667 86.0742,172.667 86.2365,172.667 86.3987,162.225 86.561,162.225 86.7232,172.667 86.8855,172.667 87.0477,166.984 87.21,172.667 87.3723,172.667 87.5345,172.667 87.6968,172.667 87.859,177.391 88.0213,177.391 88.1835,172.667 88.3458,172.667 88.5081,172.667 88.6703,172.667 88.8326,166.984 88.9948,177.391 89.1571,177.391 89.3193,172.667 89.4816,177.391 89.6439,166.984 89.8061,177.391 89.9684,172.667 90.1306,172.667 90.2929,177.391 90.4551,177.391 90.6174,177.391 90.7796,172.667 90.9419,166.984 91.1042,177.391 91.2664,172.667 91.4287,177.391 91.5909,182.15 91.7532,172.667 91.9154,182.15 92.0777,182.15 92.24,177.391 92.4022,172.667 92.5645,172.667 92.7267,177.391 92.889,172.667 93.0512,177.391 93.2135,172.667 93.3757,177.391 93.538,172.667 93.7003,182.15 93.8625,166.984 94.0248,177.391 94.187,182.15 94.3493,162.225 94.5115,172.667 94.6738,172.667 94.836,172.667 94.9983,177.391 95.1606,177.391 95.3228,177.391 95.4851,177.391 95.6473,172.667 95.8096,172.667 95.9718,172.667 96.1341,172.667 96.2963,177.391 96.4586,177.391 96.6209,177.391 96.7831,177.391 96.9454,172.667 97.1076,172.667 97.2699,162.225 97.4321,172.667 97.5944,172.667 97.7567,172.667 97.9189,172.667 98.0812,177.391 98.2434,172.667 98.4057,177.391 98.5679,177.391 98.7302,187.833 98.8924,177.391 99.0547,172.667 99.217,182.15 99.3792,182.15 99.5415,182.15 99.7037,182.15 99.866,172.667 100.028,177.391 100.19,182.15 100.353,182.15 100.515,177.391 100.677,187.833 100.84,172.667 101.002,172.667 101.164,172.667 101.326,177.391 101.489,172.667 101.651,177.391 101.813,172.667 101.975,177.391 102.138,172.667 102.3,177.391 102.462,177.391 102.624,172.667 102.787,177.391 102.949,172.667 103.111,182.15 103.273,172.667 103.436,172.667 103.598,166.984 103.76,172.667 103.922,166.984 104.085,172.667 104.247,182.15 104.409,166.984 104.571,172.667 104.734,177.391 104.896,177.391 105.058,172.667 105.22,177.391 105.383,172.667 105.545,177.391 105.707,177.391 105.869,177.391 106.032,172.667 106.194,172.667 106.356,172.667 106.518,166.984 106.681,172.667 106.843,172.667 107.005,172.667 107.168,172.667 107.33,177.391 107.492,177.391 107.654,172.667 107.817,172.667 107.979,172.667 108.141,157.501 108.303,172.667 108.466,177.391 108.628,177.391 108.79,166.984 108.952,172.667 109.115,172.667 109.277,172.667 109.439,172.667 109.601,172.667 109.764,172.667 109.926,177.391 110.088,177.391 110.25,172.667 110.413,172.667 110.575,177.391 110.737,166.984 110.899,172.667 111.062,172.667 111.224,166.984 111.386,172.667 111.548,172.667 111.711,177.391 111.873,177.391 112.035,177.391 112.197,172.667 112.36,172.667 112.522,182.15 112.684,177.391 112.846,172.667 113.009,177.391 113.171,166.984 113.333,177.391 113.495,166.984 113.658,172.667 113.82,177.391 113.982,172.667 114.145,177.391 114.307,172.667 114.469,177.391 114.631,172.667 114.794,172.667 114.956,172.667 115.118,166.984 115.28,172.667 115.443,162.225 115.605,177.391 115.767,177.391 115.929,166.984 116.092,172.667 116.254,166.984 116.416,162.225 116.578,166.984 116.741,177.391 116.903,166.984 117.065,166.984 117.227,172.667 117.39,172.667 117.552,172.667 117.714,166.984 117.876,172.667 118.039,157.501 118.201,177.391 118.363,172.667 118.525,177.391 118.688,166.984 118.85,166.984 119.012,172.667 119.174,177.391 119.337,177.391 119.499,172.667 119.661,177.391 119.823,172.667 119.986,166.984 120.148,177.391 120.31,172.667 120.472,166.984 120.635,172.667 120.797,166.984 120.959,166.984 121.122,177.391 121.284,177.391 121.446,172.667 121.608,166.984 121.771,177.391 121.933,172.667 122.095,172.667 122.257,172.667 122.42,166.984 122.582,172.667 122.744,166.984 122.906,172.667 123.069,172.667 123.231,166.984 123.393,172.667 123.555,172.667 123.718,172.667 123.88,172.667 124.042,172.667 124.204,177.391 124.367,172.667 124.529,172.667 124.691,172.667 124.853,172.667 125.016,172.667 125.178,172.667 125.34,162.225 125.502,166.984 125.665,172.667 125.827,172.667 125.989,166.984 126.151,172.667 126.314,172.667 126.476,166.984 126.638,172.667 126.8,172.667 126.963,177.391 127.125,166.984 127.287,166.984 127.45,172.667 127.612,172.667 127.774,166.984 127.936,166.984 128.099,172.667 128.261,166.984 128.423,177.391 128.585,166.984 128.748,172.667 128.91,172.667 129.072,172.667 129.234,166.984 129.397,177.391 129.559,172.667 129.721,162.225 129.883,162.225 130.046,172.667 130.208,166.984 130.37,172.667 130.532,177.391 130.695,172.667 130.857,166.984 131.019,166.984 131.181,166.984 131.344,172.667 131.506,166.984 131.668,162.225 131.83,166.984 131.993,172.667 132.155,177.391 132.317,166.984 132.479,177.391 132.642,166.984 132.804,172.667 132.966,172.667 133.128,166.984 133.291,172.667 133.453,172.667 133.615,166.984 133.777,172.667 133.94,182.15 134.102,177.391 134.264,182.15 134.427,162.225 134.589,162.225 134.751,172.667 134.913,172.667 135.076,172.667 135.238,172.667 135.4,172.667 135.562,162.225 135.725,172.667 135.887,172.667 136.049,166.984 136.211,172.667 136.374,172.667 136.536,166.984 136.698,177.391 136.86,172.667 137.023,172.667 137.185,172.667 137.347,177.391 137.509,177.391 137.672,177.391 137.834,177.391 137.996,172.667 138.158,172.667 138.321,166.984 138.483,172.667 138.645,166.984 138.807,166.984 138.97,172.667 139.132,166.984 139.294,166.984 139.456,182.15 139.619,172.667 139.781,166.984 139.943,172.667 140.105,172.667 140.268,172.667 140.43,172.667 140.592,162.225 140.755,166.984 140.917,166.984 141.079,166.984 141.241,172.667 141.404,172.667 141.566,177.391 141.728,177.391 141.89,166.984 142.053,177.391 142.215,166.984 142.377,177.391 142.539,172.667 142.702,166.984 142.864,166.984 143.026,166.984 143.188,177.391 143.351,172.667 143.513,166.984 143.675,166.984 143.837,177.391 144,172.667 144.162,166.984 144.324,166.984 144.486,166.984 144.649,172.667 144.811,177.391 144.973,172.667 145.135,166.984 145.298,172.667 145.46,172.667 145.622,166.984 145.784,177.391 145.947,166.984 146.109,166.984 146.271,166.984 146.433,166.984 146.596,172.667 146.758,166.984 146.92,172.667 147.082,182.15 147.245,162.225 147.407,172.667 147.569,172.667 147.732,172.667 147.894,177.391 148.056,172.667 148.218,177.391 148.381,177.391 148.543,177.391 148.705,177.391 148.867,166.984 149.03,172.667 149.192,172.667 149.354,172.667 149.516,172.667 149.679,172.667 149.841,177.391 150.003,172.667 150.165,172.667 150.328,166.984 150.49,177.391 150.652,162.225 150.814,172.667 150.977,166.984 151.139,172.667 151.301,172.667 151.463,172.667 151.626,172.667 151.788,172.667 151.95,177.391 152.112,166.984 152.275,172.667 152.437,172.667 152.599,172.667 152.761,162.225 152.924,177.391 153.086,177.391 153.248,166.984 153.41,172.667 153.573,166.984 153.735,172.667 153.897,162.225 154.059,166.984 154.222,172.667 154.384,172.667 154.546,162.225 154.709,166.984 154.871,166.984 155.033,172.667 155.195,172.667 155.358,166.984 155.52,166.984 155.682,177.391 155.844,166.984 156.007,162.225 156.169,172.667 156.331,166.984 156.493,166.984 156.656,166.984 156.818,177.391 156.98,172.667 157.142,172.667 157.305,172.667 157.467,166.984 157.629,172.667 157.791,172.667 157.954,172.667 158.116,166.984 158.278,166.984 158.44,177.391 158.603,172.667 158.765,166.984 158.927,166.984 159.089,162.225 159.252,166.984 159.414,177.391 159.576,166.984 159.738,177.391 159.901,172.667 160.063,166.984 160.225,162.225 160.387,172.667 160.55,166.984 160.712,166.984 160.874,166.984 161.036,172.667 161.199,166.984 161.361,166.984 161.523,162.225 161.686,166.984 161.848,166.984 162.01,172.667 162.172,172.667 162.335,172.667 162.497,166.984 162.659,172.667 162.821,166.984 162.984,166.984 163.146,162.225 163.308,166.984 163.47,172.667 163.633,172.667 163.795,162.225 163.957,166.984 164.119,166.984 164.282,166.984 164.444,172.667 164.606,172.667 164.768,172.667 164.931,162.225 165.093,166.984 165.255,166.984 165.417,162.225 165.58,166.984 165.742,166.984 165.904,172.667 166.066,172.667 166.229,162.225 166.391,166.984 166.553,162.225 166.715,166.984 166.878,172.667 167.04,172.667 167.202,157.501 167.365,166.984 167.527,166.984 167.689,166.984 167.851,162.225 168.014,162.225 168.176,166.984 168.338,172.667 168.5,162.225 168.663,162.225 168.825,166.984 168.987,172.667 169.149,172.667 169.312,172.667 169.474,166.984 169.636,172.667 169.798,166.984 169.961,162.225 170.123,166.984 170.285,166.984 170.447,166.984 170.61,172.667 170.772,162.225 170.934,157.501 171.096,166.984 171.259,166.984 171.421,166.984 171.583,162.225 171.745,166.984 171.908,166.984 172.07,166.984 172.232,162.225 172.394,162.225 172.557,162.225 172.719,172.667 172.881,157.501 173.043,162.225 173.206,162.225 173.368,157.501 173.53,172.667 173.692,182.15 173.855,162.225 174.017,162.225 174.179,166.984 174.342,172.667 174.504,162.225 174.666,172.667 174.828,157.501 174.991,166.984 175.153,162.225 175.315,166.984 175.477,162.225 175.64,162.225 175.802,166.984 175.964,172.667 176.126,157.501 176.289,166.984 176.451,162.225 176.613,162.225 176.775,162.225 176.938,162.225 177.1,157.501 177.262,162.225 177.424,157.501 177.587,166.984 177.749,166.984 177.911,162.225 178.073,177.391 178.236,166.984 178.398,162.225 178.56,157.501 178.722,162.225 178.885,157.501 179.047,166.984 179.209,162.225 179.371,162.225 179.534,162.225 179.696,162.225 179.858,162.225 180.02,172.667 180.183,166.984 180.345,157.501 180.507,162.225 180.669,162.225 180.832,157.501 180.994,157.501 181.156,157.501 181.319,166.984 181.481,166.984 181.643,166.984 181.805,166.984 181.968,166.984 182.13,166.984 182.292,162.225 182.454,166.984 182.617,162.225 182.779,162.225 182.941,157.501 183.103,157.501 183.266,162.225 183.428,162.225 183.59,157.501 183.752,157.501 183.915,166.984 184.077,157.501 184.239,166.984 184.401,162.225 184.564,162.225 184.726,162.225 184.888,157.501 185.05,162.225 185.213,157.501 185.375,166.984 185.537,162.225 185.699,162.225 185.862,157.501 186.024,162.225 186.186,162.225 186.348,162.225 186.511,166.984 186.673,166.984 186.835,157.501 186.997,157.501 187.16,162.225 187.322,157.501 187.484,157.501 187.647,162.225 187.809,157.501 187.971,157.501 188.133,157.501 188.296,162.225 188.458,162.225 188.62,157.501 188.782,166.984 188.945,162.225 189.107,152.742 189.269,157.501 189.431,157.501 189.594,157.501 189.756,157.501 189.918,157.501 190.08,162.225 190.243,157.501 190.405,162.225 190.567,157.501 190.729,157.501 190.892,152.742 191.054,162.225 191.216,162.225 191.378,157.501 191.541,162.225 191.703,157.501 191.865,166.984 192.027,162.225 192.19,162.225 192.352,162.225 192.514,157.501 192.676,157.501 192.839,152.742 193.001,152.742 193.163,157.501 193.325,162.225 193.488,162.225 193.65,157.501 193.812,157.501 193.974,152.742 194.137,162.225 194.299,152.742 194.461,157.501 194.624,157.501 194.786,162.225 194.948,162.225 195.11,157.501 195.273,157.501 195.435,157.501 195.597,157.501 195.759,162.225 195.922,157.501 196.084,157.501 196.246,157.501 196.408,162.225 196.571,147.059 196.733,152.742 196.895,157.501 197.057,152.742 197.22,162.225 197.382,157.501 197.544,157.501 197.706,157.501 197.869,157.501 198.031,162.225 198.193,152.742 198.355,166.984 198.518,157.501 198.68,157.501 198.842,157.501 199.004,152.742 199.167,162.225 199.329,162.225 199.491,166.984 199.653,162.225 199.816,152.742 199.978,162.225 200.14,157.501 200.302,152.742 200.465,152.742 200.627,166.984 200.789,157.501 200.952,162.225 201.114,157.501 201.276,157.501 201.438,166.984 201.601,162.225 201.763,157.501 201.925,157.501 202.087,162.225 202.25,152.742 202.412,157.501 202.574,152.742 202.736,152.742 202.899,166.984 203.061,172.667 203.223,172.667 203.385,182.15 203.548,182.15 203.71,172.667 203.872,187.833 204.034,182.15 204.197,177.391 204.359,182.15 204.521,182.15 204.683,177.391 204.846,182.15 205.008,182.15 205.17,182.15 205.332,182.15 205.495,182.15 205.657,177.391 205.819,166.984 205.981,177.391 206.144,187.833 206.306,172.667 206.468,182.15 206.63,172.667 206.793,177.391 206.955,177.391 207.117,172.667 207.279,177.391 207.442,172.667 207.604,182.15 207.766,177.391 207.929,177.391 208.091,166.984 208.253,177.391 208.415,182.15 208.578,172.667 208.74,172.667 208.902,177.391 209.064,172.667 209.227,172.667 209.389,177.391 209.551,172.667 209.713,166.984 209.876,182.15 210.038,177.391 210.2,177.391 210.362,172.667 210.525,162.225 210.687,177.391 210.849,172.667 211.011,166.984 211.174,172.667 211.336,166.984 211.498,172.667 211.66,172.667 211.823,166.984 211.985,172.667 212.147,172.667 212.309,166.984 212.472,172.667 212.634,166.984 212.796,177.391 212.958,166.984 213.121,162.225 213.283,162.225 213.445,172.667 213.607,172.667 213.77,177.391 213.932,166.984 214.094,177.391 214.257,182.15 214.419,177.391 214.581,177.391 214.743,172.667 214.906,172.667 215.068,177.391 215.23,172.667 215.392,166.984 215.555,166.984 215.717,166.984 215.879,172.667 216.041,177.391 216.204,177.391 216.366,182.15 216.528,177.391 216.69,166.984 216.853,182.15 217.015,172.667 217.177,172.667 217.339,172.667 217.502,172.667 217.664,166.984 217.826,166.984 217.988,177.391 218.151,166.984 218.313,162.225 218.475,166.984 218.637,177.391 218.8,166.984 218.962,166.984 219.124,172.667 219.286,172.667 219.449,172.667 219.611,166.984 219.773,172.667 219.935,177.391 220.098,166.984 220.26,177.391 220.422,177.391 220.584,182.15 220.747,177.391 220.909,172.667 221.071,172.667 221.234,172.667 221.396,166.984 221.558,162.225 221.72,162.225 221.883,172.667 222.045,172.667 222.207,166.984 222.369,166.984 222.532,166.984 222.694,172.667 222.856,166.984 223.018,172.667 223.181,177.391 223.343,172.667 223.505,166.984 223.667,172.667 223.83,166.984 223.992,172.667 224.154,166.984 224.316,172.667 224.479,172.667 224.641,177.391 224.803,172.667 224.965,162.225 225.128,177.391 225.29,172.667 225.452,182.15 225.614,172.667 225.777,172.667 225.939,182.15 226.101,177.391 226.263,177.391 226.426,182.15 226.588,177.391 226.75,172.667 226.912,162.225 227.075,177.391 227.237,172.667 227.399,172.667 227.561,177.391 227.724,172.667 227.886,166.984 228.048,172.667 228.211,166.984 228.373,172.667 228.535,177.391 228.697,172.667 228.86,177.391 229.022,177.391 229.184,172.667 229.346,177.391 229.509,172.667 229.671,172.667 229.833,177.391 229.995,172.667 230.158,166.984 230.32,172.667 230.482,177.391 230.644,172.667 230.807,172.667 230.969,172.667 231.131,177.391 231.293,172.667 231.456,166.984 231.618,166.984 231.78,166.984 231.942,172.667 232.105,166.984 232.267,172.667 232.429,172.667 232.591,172.667 232.754,172.667 232.916,172.667 233.078,166.984 233.24,172.667 233.403,177.391 233.565,166.984 233.727,166.984 233.889,162.225 234.052,177.391 234.214,177.391 234.376,172.667 234.539,172.667 234.701,172.667 234.863,162.225 235.025,162.225 235.188,172.667 235.35,172.667 235.512,166.984 235.674,172.667 235.837,172.667 235.999,172.667 236.161,172.667 236.323,177.391 236.486,177.391 236.648,172.667 236.81,172.667 236.972,172.667 237.135,172.667 237.297,166.984 237.459,177.391 237.621,177.391 237.784,172.667 237.946,177.391 238.108,166.984 238.27,177.391 238.433,172.667 238.595,172.667 238.757,177.391 238.919,177.391 239.082,177.391 239.244,172.667 239.406,166.984 239.568,177.391 239.731,172.667 239.893,177.391 240.055,182.15 240.217,172.667 240.38,182.15 240.542,182.15 240.704,177.391 240.866,172.667 241.029,172.667 241.191,177.391 241.353,172.667 241.516,177.391 241.678,172.667 241.84,177.391 242.002,172.667 242.165,182.15 242.327,166.984 242.489,177.391 242.651,182.15 242.814,162.225 242.976,172.667 243.138,172.667 243.3,172.667 243.463,177.391 243.625,177.391 243.787,177.391 243.949,177.391 244.112,172.667 244.274,172.667 244.436,172.667 244.598,172.667 244.761,177.391 244.923,177.391 245.085,177.391 245.247,177.391 245.41,172.667 245.572,172.667 245.734,162.225 245.896,172.667 246.059,172.667 246.221,172.667 246.383,172.667 246.545,177.391 246.708,172.667 246.87,177.391 247.032,177.391 247.194,187.833 247.357,177.391 247.519,172.667 247.681,182.15 247.844,182.15 248.006,182.15 248.168,182.15 248.33,172.667 248.493,177.391 248.655,182.15 248.817,182.15 248.979,177.391 249.142,187.833 249.304,172.667 249.466,172.667 249.628,172.667 249.791,177.391 249.953,172.667 250.115,177.391 250.277,172.667 250.44,177.391 250.602,172.667 250.764,177.391 250.926,177.391 251.089,172.667 251.251,177.391 251.413,172.667 251.575,182.15 251.738,172.667 251.9,172.667 252.062,166.984 252.224,172.667 252.387,166.984 252.549,172.667 252.711,182.15 252.873,166.984 253.036,172.667 253.198,177.391 253.36,177.391 253.522,172.667 253.685,177.391 253.847,172.667 254.009,177.391 254.171,177.391 254.334,177.391 254.496,172.667 254.658,172.667 254.821,172.667 254.983,166.984 255.145,172.667 255.307,172.667 255.47,172.667 255.632,172.667 255.794,177.391 255.956,177.391 256.119,172.667 256.281,172.667 256.443,172.667 256.605,157.501 256.768,172.667 256.93,177.391 257.092,177.391 257.254,166.984 257.417,172.667 257.579,172.667 257.741,172.667 257.903,172.667 258.066,172.667 258.228,172.667 258.39,177.391 258.552,177.391 258.715,172.667 258.877,172.667 259.039,177.391 259.201,166.984 259.364,172.667 259.526,172.667 259.688,166.984 259.85,172.667 260.013,172.667 260.175,177.391 260.337,177.391 260.499,177.391 260.662,172.667 260.824,172.667 260.986,182.15 261.148,177.391 261.311,172.667 261.473,177.391 261.635,166.984 261.798,177.391 261.96,166.984 262.122,172.667 262.284,177.391 262.447,172.667 262.609,177.391 262.771,172.667 262.933,177.391 263.096,172.667 263.258,172.667 263.42,172.667 263.582,166.984 263.745,172.667 263.907,162.225 264.069,177.391 264.231,177.391 264.394,166.984 264.556,172.667 264.718,166.984 264.88,162.225 265.043,166.984 265.205,177.391 265.367,166.984 265.529,166.984 265.692,172.667 265.854,172.667 266.016,172.667 266.178,166.984 266.341,172.667 266.503,157.501 266.665,177.391 266.827,172.667 266.99,177.391 267.152,166.984 267.314,166.984 267.476,172.667 267.639,177.391 267.801,177.391 267.963,172.667 268.126,177.391 268.288,172.667 268.45,166.984 268.612,177.391 268.775,172.667 268.937,166.984 269.099,172.667 269.261,166.984 269.424,166.984 269.586,177.391 269.748,177.391 269.91,172.667 270.073,166.984 270.235,177.391 270.397,172.667 270.559,172.667 270.722,172.667 270.884,166.984 271.046,172.667 271.208,166.984 271.371,172.667 271.533,172.667 271.695,166.984 271.857,172.667 272.02,172.667 272.182,172.667 272.344,172.667 272.506,172.667 272.669,177.391 272.831,172.667 272.993,172.667 273.155,172.667 273.318,172.667 273.48,172.667 273.642,172.667 273.804,162.225 273.967,166.984 274.129,172.667 274.291,172.667 274.453,166.984 274.616,172.667 274.778,172.667 274.94,166.984 275.103,172.667 275.265,172.667 275.427,177.391 275.589,166.984 275.752,166.984 275.914,172.667 276.076,172.667 276.238,166.984 276.401,166.984 276.563,172.667 276.725,166.984 276.887,177.391 277.05,166.984 277.212,172.667 277.374,172.667 277.536,172.667 277.699,166.984 277.861,177.391 278.023,172.667 278.185,162.225 278.348,162.225 278.51,172.667 278.672,166.984 278.834,172.667 278.997,177.391 279.159,172.667 279.321,166.984 279.483,166.984 279.646,166.984 279.808,172.667 279.97,166.984 280.132,162.225 280.295,166.984 280.457,172.667 280.619,177.391 280.781,166.984 280.944,177.391 281.106,166.984 281.268,172.667 281.431,172.667 281.593,166.984 281.755,172.667 281.917,172.667 282.08,166.984 282.242,172.667 282.404,182.15 282.566,177.391 282.729,182.15 282.891,162.225 283.053,162.225 283.215,172.667 283.378,172.667 283.54,172.667 283.702,172.667 283.864,172.667 284.027,162.225 284.189,172.667 284.351,172.667 284.513,166.984 284.676,172.667 284.838,172.667 285,166.984 285.162,177.391 285.325,172.667 285.487,172.667 285.649,172.667 285.811,177.391 285.974,177.391 286.136,177.391 286.298,177.391 286.46,172.667 286.623,172.667 286.785,166.984 286.947,172.667 287.109,166.984 287.272,166.984 287.434,172.667 287.596,166.984 287.758,166.984 287.921,182.15 288.083,172.667 288.245,166.984 288.408,172.667 288.57,172.667 288.732,172.667 288.894,172.667 289.057,162.225 289.219,166.984 289.381,166.984 289.543,166.984 289.706,172.667 289.868,172.667 290.03,177.391 290.192,177.391 290.355,166.984 290.517,177.391 290.679,166.984 290.841,177.391 291.004,172.667 291.166,166.984 291.328,166.984 291.49,166.984 291.653,177.391 291.815,172.667 291.977,166.984 292.139,166.984 292.302,177.391 292.464,172.667 292.626,166.984 292.788,166.984 292.951,166.984 293.113,172.667 293.275,177.391 293.437,172.667 293.6,166.984 293.762,172.667 293.924,172.667 294.086,166.984 294.249,177.391 294.411,166.984 294.573,166.984 294.736,166.984 294.898,166.984 295.06,172.667 295.222,166.984 295.385,172.667 295.547,182.15 295.709,162.225 295.871,172.667 296.034,172.667 296.196,172.667 296.358,177.391 296.52,172.667 296.683,177.391 296.845,177.391 297.007,177.391 297.169,177.391 297.332,166.984 297.494,172.667 297.656,172.667 297.818,172.667 297.981,172.667 298.143,172.667 298.305,177.391 298.467,172.667 298.63,172.667 298.792,166.984 298.954,177.391 299.116,162.225 299.279,172.667 299.441,166.984 299.603,172.667 299.765,172.667 299.928,172.667 300.09,172.667 300.252,172.667 300.414,177.391 300.577,166.984 300.739,172.667 300.901,172.667 301.064,172.667 301.226,162.225 301.388,177.391 301.55,177.391 301.712,166.984 301.875,172.667 302.037,166.984 302.199,172.667 302.362,162.225 302.524,166.984 302.686,172.667 302.848,172.667 303.011,162.225 303.173,166.984 303.335,166.984 303.497,172.667 303.66,172.667 303.822,166.984 303.984,166.984 304.146,177.391 304.309,166.984 304.471,162.225 304.633,172.667 304.795,166.984 304.958,166.984 305.12,166.984 305.282,177.391 305.444,172.667 305.607,172.667 305.769,172.667 305.931,166.984 306.093,172.667 306.256,172.667 306.418,172.667 306.58,166.984 306.742,166.984 306.905,177.391 307.067,172.667 307.229,166.984 307.391,166.984 307.554,162.225 307.716,166.984 307.878,177.391 308.04,166.984 308.203,177.391 308.365,172.667 308.527,166.984 308.69,162.225 308.852,172.667 309.014,166.984 309.176,166.984 309.339,166.984 309.501,172.667 309.663,166.984 309.825,166.984 309.988,162.225 310.15,166.984 310.312,166.984 310.474,172.667 310.637,172.667 310.799,172.667 310.961,166.984 311.123,172.667 311.286,166.984 311.448,166.984 311.61,162.225 311.772,166.984 311.935,172.667 312.097,172.667 312.259,162.225 312.421,166.984 312.584,166.984 312.746,166.984 312.908,172.667 313.07,172.667 313.233,172.667 313.395,162.225 313.557,166.984 313.719,166.984 313.882,162.225 314.044,166.984 314.206,166.984 314.368,172.667 314.531,172.667 314.693,162.225 314.855,166.984 315.017,162.225 315.18,166.984 315.342,172.667 315.504,172.667 315.667,157.501 315.829,166.984 315.991,166.984 316.153,166.984 316.316,162.225 316.478,162.225 316.64,166.984 316.802,172.667 316.965,162.225 317.127,162.225 317.289,166.984 317.451,172.667 317.614,172.667 317.776,172.667 317.938,166.984 318.1,172.667 318.263,166.984 318.425,162.225 318.587,166.984 318.749,166.984 318.912,166.984 319.074,172.667 319.236,162.225 319.398,157.501 319.561,166.984 319.723,166.984 319.885,166.984 320.047,162.225 320.21,166.984 320.372,166.984 320.534,166.984 320.696,162.225 320.859,162.225 321.021,162.225 321.183,172.667 321.345,157.501 321.508,162.225 321.67,162.225 321.832,157.501 321.995,172.667 322.157,182.15 322.319,162.225 322.481,162.225 322.644,166.984 322.806,172.667 322.968,162.225 323.13,172.667 323.293,157.501 323.455,166.984 323.617,162.225 323.779,166.984 323.942,162.225 324.104,162.225 324.266,166.984 324.428,172.667 324.591,157.501 324.753,166.984 324.915,162.225 325.077,162.225 325.24,162.225 325.402,162.225 325.564,157.501 325.726,162.225 325.889,157.501 326.051,166.984 326.213,166.984 326.375,162.225 326.538,177.391 326.7,166.984 326.862,162.225 327.024,157.501 327.187,162.225 327.349,157.501 327.511,166.984 327.673,162.225 327.836,162.225 327.998,162.225 328.16,162.225 328.322,162.225 328.485,172.667 328.647,166.984 328.809,157.501 328.972,162.225 329.134,162.225 329.296,157.501 329.458,157.501 329.621,157.501 329.783,166.984 329.945,166.984 330.107,166.984 330.27,166.984 330.432,166.984 330.594,166.984 330.756,162.225 330.919,166.984 331.081,162.225 331.243,162.225 331.405,157.501 331.568,157.501 331.73,162.225 331.892,162.225 332.054,157.501 332.217,157.501 332.379,166.984 332.541,157.501 332.703,166.984 332.866,162.225 333.028,162.225 333.19,162.225 333.352,157.501 333.515,162.225 333.677,157.501 333.839,166.984 334.001,162.225 334.164,162.225 334.326,157.501 334.488,162.225 334.65,162.225 334.813,162.225 334.975,166.984 335.137,166.984 335.299,157.501 335.462,157.501 335.624,162.225 335.786,157.501 335.949,157.501 336.111,162.225 336.273,157.501 336.435,157.501 336.598,157.501 336.76,162.225 336.922,162.225 337.084,157.501 337.247,166.984 337.409,162.225 337.571,152.742 337.733,157.501 337.896,157.501 338.058,157.501 338.22,157.501 338.382,157.501 338.545,162.225 338.707,157.501 338.869,162.225 339.031,157.501 339.194,157.501 339.356,152.742 339.518,162.225 339.68,162.225 339.843,157.501 340.005,162.225 340.167,157.501 340.329,166.984 340.492,162.225 340.654,162.225 340.816,162.225 340.978,157.501 341.141,157.501 341.303,152.742 341.465,152.742 341.627,157.501 341.79,162.225 341.952,162.225 342.114,157.501 342.277,157.501 342.439,152.742 342.601,162.225 342.763,152.742 342.926,157.501 343.088,157.501 343.25,162.225 343.412,162.225 343.575,157.501 343.737,157.501 343.899,157.501 344.061,157.501 344.224,162.225 344.386,157.501 344.548,157.501 344.71,157.501 344.873,162.225 345.035,147.059 345.197,152.742 345.359,157.501 345.522,152.742 345.684,162.225 345.846,157.501 346.008,157.501 346.171,157.501 346.333,157.501 346.495,162.225 346.657,152.742 346.82,166.984 346.982,157.501 347.144,157.501 347.306,157.501 347.469,152.742 347.631,162.225 347.793,162.225 347.955,166.984 348.118,162.225 348.28,152.742 348.442,162.225 348.605,157.501 348.767,152.742 348.929,152.742 349.091,166.984 349.254,157.501 349.416,162.225 349.578,157.501 349.74,157.501 349.903,166.984 350.065,162.225 350.227,157.501 350.389,157.501 350.552,162.225 350.714,152.742 350.876,157.501 351.038,152.742 351.201,152.742 351.363,166.984" stroke="#ff0000" stroke-linecap="butt" stroke-linejoin="round" stroke-width="0.5"/>
   <polyline fill="none" points="54.5965,167.285 54.7588,161.285 54.9211,169.81 55.0833,172.793 55.2456,173.318 55.4078,168.301 55.5701,175.81 55.7323,174.793 55.8946,175.81 56.0568,178.793 56.2191,183.81 56.3814,184.826 56.5436,187.81 56.7059,187.81 56.8681,175.81 57.0304,160.793 57.1926,180.793 57.3549,165.81 57.5172,168.793 57.6794,171.318 57.8417,161.285 58.0039,157.81 58.1662,145.777 58.3284,156.793 58.4907,159.81 58.6529,140.301 58.8152,117.285 58.9775,121.776 59.1397,123.776 59.302,114.268 59.4642,108.268 59.6265,123.776 59.7887,126.268 59.951,136.793 60.1133,125.285 60.2755,136.793 60.4378,135.285 60.6,134.268 60.7623,131.285 60.9245,135.285 61.0868,134.268 61.249,126.268 61.4113,142.793 61.5736,126.268 61.7358,126.268 61.8981,134.268 62.0603,131.285 62.2226,111.284 62.3848,103.776 62.5471,108.268 62.7093,91.7433 62.8716,93.2515 63.0339,88.7597 63.1961,94.7597 63.3584,93.2515 63.5206,91.7433 63.6829,79.7432 63.8451,75.2513 64.0074,72.7595 64.1696,62.2348 64.3319,77.2514 64.4942,78.235 64.6564,73.7431 64.8187,55.743 64.9809,82.7596 65.1432,79.7432 65.3055,84.2678 65.4677,81.2514 65.63,84.2678 65.7922,87.7433 65.9545,86.2678 66.1167,86.2678 66.279,85.7432 66.4412,94.7597 66.6035,95.2515 66.7658,94.7597 66.928,90.2679 67.0903,84.2678 67.2525,93.2515 67.4148,91.7433 67.577,93.2515 67.7393,86.2678 67.9015,90.7597 68.0638,89.2515 68.2261,90.2679 68.3883,90.7597 68.5506,100.76 68.7128,91.7433 68.8751,91.7433 69.0373,91.7433 69.1996,75.2513 69.3618,66.2349 69.5241,74.2349 69.6864,71.2513 69.8486,70.7595 70.0109,75.2513 70.1731,89.2515 70.3354,84.2678 70.4976,90.2679 70.6599,85.7432 70.8221,85.7432 70.9844,91.7433 71.1467,102.268 71.3089,106.76 71.4712,105.252 71.6334,114.76 71.7957,111.284 71.9579,117.285 72.1202,120.76 72.2824,114.268 72.4447,121.776 72.607,125.285 72.7692,118.76 72.9315,114.76 73.0937,116.268 73.256,122.268 73.4183,127.776 73.5805,131.285 73.7428,129.776 73.905,132.793 74.0673,141.777 74.2295,134.268 74.3918,129.776 74.554,131.285 74.7163,138.268 74.8786,140.301 75.0408,132.793 75.2031,134.268 75.3653,120.268 75.5276,131.285 75.6898,114.76 75.8521,125.285 76.0143,131.285 76.1766,123.285 76.3389,131.285 76.5011,128.268 76.6634,129.285 76.8256,131.285 76.9879,136.793 77.1501,127.776 77.3124,136.793 77.4746,139.777 77.6369,138.268 77.7992,138.268 77.9614,142.793 78.1237,129.285 78.2859,140.301 78.4482,131.285 78.6104,129.285 78.7727,121.776 78.9349,121.776 79.0972,126.268 79.2595,118.76 79.4217,114.76 79.584,116.268 79.7462,105.776 79.9085,116.268 80.0707,111.284 80.233,109.776 80.3953,114.268 80.5575,120.268 80.7198,116.268 80.882,111.284 81.0443,106.76 81.2065,118.76 81.3688,120.268 81.5311,116.268 81.6933,120.268 81.8556,118.76 82.0178,126.268 82.1801,127.776 82.3423,127.776 82.5046,125.285 82.6668,135.285 82.8291,145.777 82.9914,138.793 83.1536,126.268 83.3159,141.777 83.4781,140.301 83.6404,138.793 83.8026,143.285 83.9649,143.285 84.1271,131.285 84.2894,145.777 84.4517,145.777 84.6139,132.793 84.7762,143.285 84.9384,147.285 85.1007,144.793 85.2629,147.777 85.4252,131.285 85.5874,117.285 85.7497,117.285 85.912,109.776 86.0742,106.76 86.2365,109.776 86.3987,107.252 86.561,119.285 86.7232,134.268 86.8855,134.268 87.0477,144.793 87.21,145.777 87.3723,158.301 87.5345,152.301 87.6968,161.285 87.859,180.793 88.0213,180.793 88.1835,173.318 88.3458,173.318 88.5081,180.302 88.6703,173.318 88.8326,171.81 88.9948,165.81 89.1571,174.793 89.3193,173.318 89.4816,171.318 89.6439,165.81 89.8061,180.793 89.9684,167.285 90.1306,161.285 90.2929,165.81 90.4551,162.301 90.6174,156.793 90.7796,170.301 90.9419,165.81 91.1042,174.793 91.2664,155.285 91.4287,174.793 91.5909,182.302 91.7532,176.301 91.9154,169.81 92.0777,169.81 92.24,177.81 92.4022,176.301 92.5645,176.301 92.7267,183.81 92.889,180.302 93.0512,177.81 93.2135,180.302 93.3757,174.793 93.538,182.302 93.7003,182.302 93.8625,178.793 94.0248,177.81 94.187,182.302 94.3493,186.302 94.5115,182.302 94.6738,180.302 94.836,182.302 94.9983,186.826 95.1606,189.81 95.3228,192.826 95.4851,183.81 95.6473,176.301 95.8096,191.318 95.9718,191.318 96.1341,182.302 96.2963,189.81 96.4586,183.81 96.6209,180.793 96.7831,189.81 96.9454,182.302 97.1076,189.318 97.2699,177.318 97.4321,170.301 97.5944,173.318 97.7567,167.285 97.9189,167.285 98.0812,171.318 98.2434,167.285 98.4057,171.318 98.5679,171.318 98.7302,177.318 98.8924,174.793 99.0547,182.302 99.217,182.302 99.3792,184.826 99.5415,191.318 99.7037,196.826 99.866,194.302 100.028,198.826 100.19,206.335 100.353,218.335 100.515,210.826 100.677,222.827 100.84,207.318 101.002,216.335 101.164,200.335 101.326,214.826 101.489,228.335 101.651,214.826 101.813,219.318 101.975,207.81 102.138,209.318 102.3,214.826 102.462,223.843 102.624,213.318 102.787,223.843 102.949,200.335 103.111,212.335 103.273,213.318 103.436,204.335 103.598,196.826 103.76,200.335 103.922,199.81 104.085,198.334 104.247,203.318 104.409,205.81 104.571,204.335 104.734,205.81 104.896,205.81 105.058,200.335 105.22,201.81 105.383,209.318 105.545,195.81 105.707,192.826 105.869,183.81 106.032,185.318 106.194,180.302 106.356,170.301 106.518,178.793 106.681,180.302 106.843,182.302 107.005,180.302 107.168,173.318 107.33,180.793 107.492,183.81 107.654,173.318 107.817,176.301 107.979,185.318 108.141,178.793 108.303,180.302 108.466,180.793 108.628,186.826 108.79,178.793 108.952,194.302 109.115,182.302 109.277,185.318 109.439,194.302 109.601,191.318 109.764,198.334 109.926,189.81 110.088,195.81 110.25,204.335 110.413,204.335 110.575,205.81 110.737,202.826 110.899,225.351 111.062,231.351 111.224,238.859 111.386,249.351 111.548,246.335 111.711,250.86 111.873,247.843 112.035,253.843 112.197,246.335 112.36,246.335 112.522,245.351 112.684,241.843 112.846,231.351 113.009,214.826 113.171,211.843 113.333,207.81 113.495,199.81 113.658,200.335 113.82,198.826 113.982,194.302 114.145,192.826 114.307,200.335 114.469,201.81 114.631,207.318 114.794,207.318 114.956,194.302 115.118,192.826 115.28,189.318 115.443,180.302 115.605,186.826 115.767,189.81 115.929,192.826 116.092,191.318 116.254,192.826 116.416,201.81 116.578,196.826 116.741,205.81 116.903,202.826 117.065,199.81 117.227,194.302 117.39,191.318 117.552,191.318 117.714,196.826 117.876,204.335 118.039,194.302 118.201,201.81 118.363,209.318 118.525,210.826 118.688,208.826 118.85,199.81 119.012,204.335 119.174,201.81 119.337,198.826 119.499,209.318 119.661,201.81 119.823,198.334 119.986,196.826 120.148,205.81 120.31,200.335 120.472,199.81 120.635,194.302 120.797,192.826 120.959,190.826 121.122,195.81 121.284,198.826 121.446,198.334 121.608,199.81 121.771,198.826 121.933,198.334 122.095,207.318 122.257,213.318 122.42,205.81 122.582,207.318 122.744,202.826 122.906,209.318 123.069,213.318 123.231,217.843 123.393,213.318 123.555,216.335 123.718,213.318 123.88,219.318 124.042,209.318 124.204,207.81 124.367,198.334 124.529,207.318 124.691,207.318 124.853,207.318 125.016,209.318 125.178,198.334 125.34,198.334 125.502,192.826 125.665,204.335 125.827,194.302 125.989,192.826 126.151,204.335 126.314,209.318 126.476,183.81 126.638,194.302 126.8,207.318 126.963,195.81 127.125,205.81 127.287,196.826 127.45,198.334 127.612,200.335 127.774,202.826 127.936,202.826 128.099,200.335 128.261,183.81 128.423,189.81 128.585,190.826 128.748,189.318 128.91,185.318 129.072,180.302 129.234,180.793 129.397,174.793 129.559,170.301 129.721,177.318 129.883,192.302 130.046,173.318 130.208,183.81 130.37,176.301 130.532,183.81 130.695,194.302 130.857,190.826 131.019,196.826 131.181,192.826 131.344,200.335 131.506,196.826 131.668,195.318 131.83,199.81 131.993,204.335 132.155,207.81 132.317,202.826 132.479,205.81 132.642,190.826 132.804,207.318 132.966,216.335 133.128,214.826 133.291,222.335 133.453,213.318 133.615,205.81 133.777,216.335 133.94,221.318 134.102,216.826 134.264,215.318 134.427,210.826 134.589,207.318 134.751,213.318 134.913,213.318 135.076,209.318 135.238,204.335 135.4,216.335 135.562,210.826 135.725,209.318 135.887,207.318 136.049,196.826 136.211,213.318 136.374,216.335 136.536,208.826 136.698,214.826 136.86,207.318 137.023,216.335 137.185,209.318 137.347,210.826 137.509,210.826 137.672,205.81 137.834,207.81 137.996,204.335 138.158,204.335 138.321,202.826 138.483,213.318 138.645,202.826 138.807,205.81 138.97,198.334 139.132,187.81 139.294,190.826 139.456,184.826 139.619,198.334 139.781,190.826 139.943,198.334 140.105,191.318 140.268,200.335 140.43,207.318 140.592,201.81 140.755,196.826 140.917,211.843 141.079,208.826 141.241,198.334 141.404,209.318 141.566,207.81 141.728,205.81 141.89,208.826 142.053,205.81 142.215,208.826 142.377,205.81 142.539,200.335 142.702,205.81 142.864,190.826 143.026,178.793 143.188,186.826 143.351,182.302 143.513,178.793 143.675,180.793 143.837,189.81 144,180.302 144.162,180.793 144.324,187.81 144.486,174.793 144.649,189.318 144.811,186.826 144.973,198.334 145.135,190.826 145.298,200.335 145.46,194.302 145.622,202.826 145.784,205.81 145.947,196.826 146.109,187.81 146.271,208.826 146.433,199.81 146.596,204.335 146.758,196.826 146.92,200.335 147.082,200.335 147.245,198.334 147.407,200.335 147.569,198.334 147.732,185.318 147.894,198.826 148.056,185.318 148.218,192.826 148.381,192.826 148.543,192.826 148.705,189.81 148.867,196.826 149.03,191.318 149.192,198.334 149.354,191.318 149.516,189.318 149.679,185.318 149.841,201.81 150.003,194.302 150.165,198.334 150.328,196.826 150.49,198.826 150.652,198.334 150.814,189.318 150.977,199.81 151.139,194.302 151.301,200.335 151.463,191.318 151.626,191.318 151.788,191.318 151.95,192.826 152.112,187.81 152.275,191.318 152.437,198.334 152.599,185.318 152.761,183.318 152.924,189.81 153.086,189.81 153.248,183.81 153.41,182.302 153.573,171.81 153.735,170.301 153.897,174.301 154.059,168.793 154.222,167.285 154.384,164.301 154.546,167.285 154.709,165.81 154.871,168.793 155.033,173.318 155.195,167.285 155.358,165.81 155.52,168.793 155.682,177.81 155.844,178.793 156.007,171.318 156.169,180.302 156.331,187.81 156.493,180.793 156.656,180.793 156.818,189.81 156.98,185.318 157.142,185.318 157.305,198.334 157.467,187.81 157.629,194.302 157.791,182.302 157.954,191.318 158.116,192.826 158.278,187.81 158.44,192.826 158.603,182.302 158.765,192.826 158.927,187.81 159.089,180.302 159.252,180.793 159.414,183.81 159.576,187.81 159.738,186.826 159.901,180.302 160.063,183.81 160.225,189.318 160.387,189.318 160.55,190.826 160.712,183.81 160.874,180.793 161.036,189.318 161.199,178.793 161.361,180.793 161.523,186.302 161.686,180.793 161.848,183.81 162.01,189.318 162.172,180.302 162.335,180.302 162.497,180.793 162.659,182.302 162.821,180.793 162.984,168.793 163.146,183.318 163.308,178.793 163.47,182.302 163.633,173.318 163.795,177.318 163.957,178.793 164.119,183.81 164.282,171.81 164.444,176.301 164.606,182.302 164.768,189.318 164.931,180.302 165.093,187.81 165.255,180.793 165.417,180.302 165.58,162.793 165.742,180.793 165.904,173.318 166.066,161.285 166.229,153.285 166.391,159.81 166.553,158.301 166.715,144.793 166.878,143.285 167.04,149.285 167.202,145.777 167.365,138.793 167.527,144.793 167.689,156.793 167.851,153.285 168.014,149.285 168.176,150.793 168.338,152.301 168.5,143.285 168.663,165.285 168.825,162.793 168.987,145.777 169.149,164.301 169.312,167.285 169.474,156.793 169.636,158.301 169.798,162.793 169.961,165.285 170.123,162.793 170.285,165.81 170.447,168.793 170.61,164.301 170.772,165.285 170.934,157.81 171.096,162.793 171.259,159.81 171.421,150.793 171.583,153.285 171.745,150.793 171.908,141.777 172.07,144.793 172.232,143.285 172.394,143.285 172.557,131.285 172.719,161.285 172.881,160.793 173.043,180.302 173.206,180.302 173.368,178.793 173.53,180.302 173.692,184.826 173.855,167.285 174.017,167.285 174.179,168.793 174.342,167.285 174.504,156.301 174.666,152.301 174.828,141.777 174.991,138.793 175.153,143.285 175.315,144.793 175.477,134.268 175.64,146.301 175.802,132.793 175.964,149.285 176.126,139.777 176.289,132.793 176.451,143.285 176.613,149.285 176.775,158.301 176.938,149.285 177.1,151.777 177.262,153.285 177.424,151.777 177.587,159.81 177.749,153.809 177.911,158.301 178.073,153.285 178.236,165.81 178.398,162.301 178.56,151.777 178.722,156.301 178.885,160.793 179.047,153.809 179.209,158.301 179.371,158.301 179.534,156.301 179.696,162.301 179.858,167.285 180.02,167.285 180.183,162.793 180.345,160.793 180.507,165.285 180.669,165.285 180.832,169.81 180.994,169.81 181.156,176.301 181.319,171.81 181.481,180.793 181.643,180.793 181.805,174.793 181.968,180.793 182.13,174.793 182.292,180.302 182.454,180.793 182.617,171.318 182.779,186.302 182.941,172.793 183.103,181.81 183.266,177.318 183.428,174.301 183.59,176.301 183.752,166.793 183.915,168.793 184.077,172.793 184.239,178.793 184.401,177.318 184.564,174.301 184.726,180.302 184.888,176.301 185.05,174.301 185.213,176.301 185.375,174.793 185.537,177.318 185.699,180.302 185.862,166.793 186.024,180.302 186.186,171.318 186.348,174.301 186.511,168.793 186.673,171.81 186.835,163.81 186.997,151.777 187.16,156.301 187.322,148.793 187.484,151.777 187.647,149.285 187.809,154.793 187.971,148.793 188.133,160.793 188.296,156.301 188.458,162.301 188.62,151.777 188.782,162.793 188.945,158.301 189.107,156.301 189.269,160.793 189.431,157.81 189.594,160.793 189.756,151.777 189.918,154.793 190.08,162.301 190.243,160.793 190.405,165.285 190.567,163.81 190.729,166.793 190.892,168.793 191.054,158.301 191.216,156.301 191.378,151.777 191.541,156.301 191.703,148.793 191.865,150.793 192.027,156.301 192.19,156.301 192.352,156.301 192.514,151.777 192.676,145.777 192.839,144.301 193.001,147.285 193.163,145.777 193.325,143.285 193.488,143.285 193.65,163.81 193.812,157.81 193.974,153.285 194.137,156.301 194.299,159.81 194.461,160.793 194.624,160.793 194.786,158.301 194.948,171.318 195.11,160.793 195.273,169.81 195.435,163.81 195.597,169.81 195.759,167.285 195.922,166.793 196.084,172.793 196.246,166.793 196.408,177.318 196.571,176.301 196.733,168.793 196.895,166.793 197.057,168.793 197.22,165.285 197.382,178.793 197.544,181.81 197.706,181.81 197.869,172.793 198.031,177.318 198.193,165.285 198.355,162.793 198.518,166.793 198.68,166.793 198.842,166.793 199.004,165.285 199.167,165.285 199.329,174.301 199.491,165.81 199.653,165.285 199.816,159.81 199.978,162.301 200.14,163.81 200.302,171.318 200.465,168.793 200.627,171.81 200.789,169.81 200.952,177.318 201.114,176.301 201.276,176.301 201.438,174.793 201.601,171.318 201.763,172.793 201.925,181.81 202.087,174.301 202.25,174.793 202.412,176.301 202.574,174.793 202.736,180.793 202.899,168.793 203.061,167.285 203.223,161.285 203.385,169.81 203.548,172.793 203.71,173.318 203.872,168.301 204.034,175.81 204.197,174.793 204.359,175.81 204.521,178.793 204.683,183.81 204.846,184.826 205.008,187.81 205.17,187.81 205.332,175.81 205.495,160.793 205.657,180.793 205.819,165.81 205.981,168.793 206.144,171.318 206.306,161.285 206.468,157.81 206.63,145.777 206.793,156.793 206.955,159.81 207.117,140.301 207.279,117.285 207.442,121.776 207.604,123.776 207.766,114.268 207.929,108.268 208.091,123.776 208.253,126.268 208.415,136.793 208.578,125.285 208.74,136.793 208.902,135.285 209.064,134.268 209.227,131.285 209.389,135.285 209.551,134.268 209.713,126.268 209.876,142.793 210.038,126.268 210.2,126.268 210.362,134.268 210.525,131.285 210.687,111.284 210.849,103.776 211.011,108.268 211.174,91.7433 211.336,93.2515 211.498,88.7597 211.66,94.7597 211.823,93.2515 211.985,91.7433 212.147,79.7432 212.309,75.2513 212.472,72.7595 212.634,62.2348 212.796,77.2514 212.958,78.235 213.121,73.7431 213.283,55.743 213.445,82.7596 213.607,79.7432 213.77,84.2678 213.932,81.2514 214.094,84.2678 214.257,87.7433 214.419,86.2678 214.581,86.2678 214.743,85.7432 214.906,94.7597 215.068,95.2515 215.23,94.7597 215.392,90.2679 215.555,84.2678 215.717,93.2515 215.879,91.7433 216.041,93.2515 216.204,86.2678 216.366,90.7597 216.528,89.2515 216.69,90.2679 216.853,90.7597 217.015,100.76 217.177,91.7433 217.339,91.7433 217.502,91.7433 217.664,75.2513 217.826,66.2349 217.988,74.2349 218.151,71.2513 218.313,70.7595 218.475,75.2513 218.637,89.2515 218.8,84.2678 218.962,90.2679 219.124,85.7432 219.286,85.7432 219.449,91.7433 219.611,102.268 219.773,106.76 219.935,105.252 220.098,114.76 220.26,111.284 220.422,117.285 220.584,120.76 220.747,114.268 220.909,121.776 221.071,125.285 221.234,118.76 221.396,114.76 221.558,116.268 221.72,122.268 221.883,127.776 222.045,131.285 222.207,129.776 222.369,132.793 222.532,141.777 222.694,134.268 222.856,129.776 223.018,131.285 223.181,138.268 223.343,140.301 223.505,132.793 223.667,134.268 223.83,120.268 223.992,131.285 224.154,114.76 224.316,125.285 224.479,131.285 224.641,123.285 224.803,131.285 224.965,128.268 225.128,129.285 225.29,131.285 225.452,136.793 225.614,127.776 225.777,136.793 225.939,139.777 226.101,138.268 226.263,138.268 226.426,142.793 226.588,129.285 226.75,140.301 226.912,131.285 227.075,129.285 227.237,121.776 227.399,121.776 227.561,126.268 227.724,118.76 227.886,114.76 228.048,116.268 228.211,105.776 228.373,116.268 228.535,111.284 228.697,109.776 228.86,114.268 229.022,120.268 229.184,116.268 229.346,111.284 229.509,106.76 229.671,118.76 229.833,120.268 229.995,116.268 230.158,120.268 230.32,118.76 230.482,126.268 230.644,127.776 230.807,127.776 230.969,125.285 231.131,135.285 231.293,145.777 231.456,138.793 231.618,126.268 231.78,141.777 231.942,140.301 232.105,138.793 232.267,143.285 232.429,143.285 232.591,131.285 232.754,145.777 232.916,145.777 233.078,132.793 233.24,143.285 233.403,147.285 233.565,144.793 233.727,147.777 233.889,131.285 234.052,117.285 234.214,117.285 234.376,109.776 234.539,106.76 234.701,109.776 234.863,107.252 235.025,119.285 235.188,134.268 235.35,134.268 235.512,144.793 235.674,145.777 235.837,158.301 235.999,152.301 236.161,161.285 236.323,180.793 236.486,180.793 236.648,173.318 236.81,173.318 236.972,180.302 237.135,173.318 237.297,171.81 237.459,165.81 237.621,174.793 237.784,173.318 237.946,171.318 238.108,165.81 238.27,180.793 238.433,167.285 238.595,161.285 238.757,165.81 238.919,162.301 239.082,156.793 239.244,170.301 239.406,165.81 239.568,174.793 239.731,155.285 239.893,174.793 240.055,182.302 240.217,176.301 240.38,169.81 240.542,169.81 240.704,177.81 240.866,176.301 241.029,176.301 241.191,183.81 241.353,180.302 241.516,177.81 241.678,180.302 241.84,174.793 242.002,182.302 242.165,182.302 242.327,178.793 242.489,177.81 242.651,182.302 242.814,186.302 242.976,182.302 243.138,180.302 243.3,182.302 243.463,186.826 243.625,189.81 243.787,192.826 243.949,183.81 244.112,176.301 244.274,191.318 244.436,191.318 244.598,182.302 244.761,189.81 244.923,183.81 245.085,180.793 245.247,189.81 245.41,182.302 245.572,189.318 245.734,177.318 245.896,170.301 246.059,173.318 246.221,167.285 246.383,167.285 246.545,171.318 246.708,167.285 246.87,171.318 247.032,171.318 247.194,177.318 247.357,174.793 247.519,182.302 247.681,182.302 247.844,184.826 248.006,191.318 248.168,196.826 248.33,194.302 248.493,198.826 248.655,206.335 248.817,218.335 248.979,210.826 249.142,222.827 249.304,207.318 249.466,216.335 249.628,200.335 249.791,214.826 249.953,228.335 250.115,214.826 250.277,219.318 250.44,207.81 250.602,209.318 250.764,214.826 250.926,223.843 251.089,213.318 251.251,223.843 251.413,200.335 251.575,212.335 251.738,213.318 251.9,204.335 252.062,196.826 252.224,200.335 252.387,199.81 252.549,198.334 252.711,203.318 252.873,205.81 253.036,204.335 253.198,205.81 253.36,205.81 253.522,200.335 253.685,201.81 253.847,209.318 254.009,195.81 254.171,192.826 254.334,183.81 254.496,185.318 254.658,180.302 254.821,170.301 254.983,178.793 255.145,180.302 255.307,182.302 255.47,180.302 255.632,173.318 255.794,180.793 255.956,183.81 256.119,173.318 256.281,176.301 256.443,185.318 256.605,178.793 256.768,180.302 256.93,180.793 257.092,186.826 257.254,178.793 257.417,194.302 257.579,182.302 257.741,185.318 257.903,194.302 258.066,191.318 258.228,198.334 258.39,189.81 258.552,195.81 258.715,204.335 258.877,204.335 259.039,205.81 259.201,202.826 259.364,225.351 259.526,231.351 259.688,238.859 259.85,249.351 260.013,246.335 260.175,250.86 260.337,247.843 260.499,253.843 260.662,246.335 260.824,246.335 260.986,245.351 261.148,241.843 261.311,231.351 261.473,214.826 261.635,211.843 261.798,207.81 261.96,199.81 262.122,200.335 262.284,198.826 262.447,194.302 262.609,192.826 262.771,200.335 262.933,201.81 263.096,207.318 263.258,207.318 263.42,194.302 263.582,192.826 263.745,189.318 263.907,180.302 264.069,186.826 264.231,189.81 264.394,192.826 264.556,191.318 264.718,192.826 264.88,201.81 265.043,196.826 265.205,205.81 265.367,202.826 265.529,199.81 265.692,194.302 265.854,191.318 266.016,191.318 266.178,196.826 266.341,204.335 266.503,194.302 266.665,201.81 266.827,209.318 266.99,210.826 267.152,208.826 267.314,199.81 267.476,204.335 267.639,201.81 267.801,198.826 267.963,209.318 268.126,201.81 268.288,198.334 268.45,196.826 268.612,205.81 268.775,200.335 268.937,199.81 269.099,194.302 269.261,192.826 269.424,190.826 269.586,195.81 269.748,198.826 269.91,198.334 270.073,199.81 270.235,198.826 270.397,198.334 270.559,207.318 270.722,213.318 270.884,205.81 271.046,207.318 271.208,202.826 271.371,209.318 271.533,213.318 271.695,217.843 271.857,213.318 272.02,216.335 272.182,213.318 272.344,219.318 272.506,209.318 272.669,207.81 272.831,198.334 272.993,207.318 273.155,207.318 273.318,207.318 273.48,209.318 273.642,198.334 273.804,198.334 273.967,192.826 274.129,204.335 274.291,194.302 274.453,192.826 274.616,204.335 274.778,209.318 274.94,183.81 275.103,194.302 275.265,207.318 275.427,195.81 275.589,205.81 275.752,196.826 275.914,198.334 276.076,200.335 276.238,202.826 276.401,202.826 276.563,200.335 276.725,183.81 276.887,189.81 277.05,190.826 277.212,189.318 277.374,185.318 277.536,180.302 277.699,180.793 277.861,174.793 278.023,170.301 278.185,177.318 278.348,192.302 278.51,173.318 278.672,183.81 278.834,176.301 278.997,183.81 279.159,194.302 279.321,190.826 279.483,196.826 279.646,192.826 279.808,200.335 279.97,196.826 280.132,195.318 280.295,199.81 280.457,204.335 280.619,207.81 280.781,202.826 280.944,205.81 281.106,190.826 281.268,207.318 281.431,216.335 281.593,214.826 281.755,222.335 281.917,213.318 282.08,205.81 282.242,216.335 282.404,221.318 282.566,216.826 282.729,215.318 282.891,210.826 283.053,207.318 283.215,213.318 283.378,213.318 283.54,209.318 283.702,204.335 283.864,216.335 284.027,210.826 284.189,209.318 284.351,207.318 284.513,196.826 284.676,213.318 284.838,216.335 285,208.826 285.162,214.826 285.325,207.318 285.487,216.335 285.649,209.318 285.811,210.826 285.974,210.826 286.136,205.81 286.298,207.81 286.46,204.335 286.623,204.335 286.785,202.826 286.947,213.318 287.109,202.826 287.272,205.81 287.434,198.334 287.596,187.81 287.758,190.826 287.921,184.826 288.083,198.334 288.245,190.826 288.408,198.334 288.57,191.318 288.732,200.335 288.894,207.318 289.057,201.81 289.219,196.826 289.381,211.843 289.543,208.826 289.706,198.334 289.868,209.318 290.03,207.81 290.192,205.81 290.355,208.826 290.517,205.81 290.679,208.826 290.841,205.81 291.004,200.335 291.166,205.81 291.328,190.826 291.49,178.793 291.653,186.826 291.815,182.302 291.977,178.793 292.139,180.793 292.302,189.81 292.464,180.302 292.626,180.793 292.788,187.81 292.951,174.793 293.113,189.318 293.275,186.826 293.437,198.334 293.6,190.826 293.762,200.335 293.924,194.302 294.086,202.826 294.249,205.81 294.411,196.826 294.573,187.81 294.736,208.826 294.898,199.81 295.06,204.335 295.222,196.826 295.385,200.335 295.547,200.335 295.709,198.334 295.871,200.335 296.034,198.334 296.196,185.318 296.358,198.826 296.52,185.318 296.683,192.826 296.845,192.826 297.007,192.826 297.169,189.81 297.332,196.826 297.494,191.318 297.656,198.334 297.818,191.318 297.981,189.318 298.143,185.318 298.305,201.81 298.467,194.302 298.63,198.334 298.792,196.826 298.954,198.826 299.116,198.334 299.279,189.318 299.441,199.81 299.603,194.302 299.765,200.335 299.928,191.318 300.09,191.318 300.252,191.318 300.414,192.826 300.577,187.81 300.739,191.318 300.901,198.334 301.064,185.318 301.226,183.318 301.388,189.81 301.55,189.81 301.712,183.81 301.875,182.302 302.037,171.81 302.199,170.301 302.362,174.301 302.524,168.793 302.686,167.285 302.848,164.301 303.011,167.285 303.173,165.81 303.335,168.793 303.497,173.318 303.66,167.285 303.822,165.81 303.984,168.793 304.146,177.81 304.309,178.793 304.471,171.318 304.633,180.302 304.795,187.81 304.958,180.793 305.12,180.793 305.282,189.81 305.444,185.318 305.607,185.318 305.769,198.334 305.931,187.81 306.093,194.302 306.256,182.302 306.418,191.318 306.58,192.826 306.742,187.81 306.905,192.826 307.067,182.302 307.229,192.826 307.391,187.81 307.554,180.302 307.716,180.793 307.878,183.81 308.04,187.81 308.203,186.826 308.365,180.302 308.527,183.81 308.69,189.318 308.852,189.318 309.014,190.826 309.176,183.81 309.339,180.793 309.501,189.318 309.663,178.793 309.825,180.793 309.988,186.302 310.15,180.793 310.312,183.81 310.474,189.318 310.637,180.302 310.799,180.302 310.961,180.793 311.123,182.302 311.286,180.793 311.448,168.793 311.61,183.318 311.772,178.793 311.935,182.302 312.097,173.318 312.259,177.318 312.421,178.793 312.584,183.81 312.746,171.81 312.908,176.301 313.07,182.302 313.233,189.318 313.395,180.302 313.557,187.81 313.719,180.793 313.882,180.302 314.044,162.793 314.206,180.793 314.368,173.318 314.531,161.285 314.693,153.285 314.855,159.81 315.017,158.301 315.18,144.793 315.342,143.285 315.504,149.285 315.667,145.777 315.829,138.793 315.991,144.793 316.153,156.793 316.316,153.285 316.478,149.285 316.64,150.793 316.802,152.301 316.965,143.285 317.127,165.285 317.289,162.793 317.451,145.777 317.614,164.301 317.776,167.285 317.938,156.793 318.1,158.301 318.263,162.793 318.425,165.285 318.587,162.793 318.749,165.81 318.912,168.793 319.074,164.301 319.236,165.285 319.398,157.81 319.561,162.793 319.723,159.81 319.885,150.793 320.047,153.285 320.21,150.793 320.372,141.777 320.534,144.793 320.696,143.285 320.859,143.285 321.021,131.285 321.183,161.285 321.345,160.793 321.508,180.302 321.67,180.302 321.832,178.793 321.995,180.302 322.157,184.826 322.319,167.285 322.481,167.285 322.644,168.793 322.806,167.285 322.968,156.301 323.13,152.301 323.293,141.777 323.455,138.793 323.617,143.285 323.779,144.793 323.942,134.268 324.104,146.301 324.266,132.793 324.428,149.285 324.591,139.777 324.753,132.793 324.915,143.285 325.077,149.285 325.24,158.301 325.402,149.285 325.564,151.777 325.726,153.285 325.889,151.777 326.051,159.81 326.213,153.809 326.375,158.301 326.538,153.285 326.7,165.81 326.862,162.301 327.024,151.777 327.187,156.301 327.349,160.793 327.511,153.809 327.673,158.301 327.836,158.301 327.998,156.301 328.16,162.301 328.322,167.285 328.485,167.285 328.647,162.793 328.809,160.793 328.972,165.285 329.134,165.285 329.296,169.81 329.458,169.81 329.621,176.301 329.783,171.81 329.945,180.793 330.107,180.793 330.27,174.793 330.432,180.793 330.594,174.793 330.756,180.302 330.919,180.793 331.081,171.318 331.243,186.302 331.405,172.793 331.568,181.81 331.73,177.318 331.892,174.301 332.054,176.301 332.217,166.793 332.379,168.793 332.541,172.793 332.703,178.793 332.866,177.318 333.028,174.301 333.19,180.302 333.352,176.301 333.515,174.301 333.677,176.301 333.839,174.793 334.001,177.318 334.164,180.302 334.326,166.793 334.488,180.302 334.65,171.318 334.813,174.301 334.975,168.793 335.137,171.81 335.299,163.81 335.462,151.777 335.624,156.301 335.786,148.793 335.949,151.777 336.111,149.285 336.273,154.793 336.435,148.793 336.598,160.793 336.76,156.301 336.922,162.301 337.084,151.777 337.247,162.793 337.409,158.301 337.571,156.301 337.733,160.793 337.896,157.81 338.058,160.793 338.22,151.777 338.382,154.793 338.545,162.301 338.707,160.793 338.869,165.285 339.031,163.81 339.194,166.793 339.356,168.793 339.518,158.301 339.68,156.301 339.843,151.777 340.005,156.301 340.167,148.793 340.329,150.793 340.492,156.301 340.654,156.301 340.816,156.301 340.978,151.777 341.141,145.777 341.303,144.301 341.465,147.285 341.627,145.777 341.79,143.285 341.952,143.285 342.114,163.81 342.277,157.81 342.439,153.285 342.601,156.301 342.763,159.81 342.926,160.793 343.088,160.793 343.25,158.301 343.412,171.318 343.575,160.793 343.737,169.81 343.899,163.81 344.061,169.81 344.224,167.285 344.386,166.793 344.548,172.793 344.71,166.793 344.873,177.318 345.035,176.301 345.197,168.793 345.359,166.793 345.522,168.793 345.684,165.285 345.846,178.793 346.008,181.81 346.171,181.81 346.333,172.793 346.495,177.318 346.657,165.285 346.82,162.793 346.982,166.793 347.144,166.793 347.306,166.793 347.469,165.285 347.631,165.285 347.793,174.301 347.955,165.81 348.118,165.285 348.28,159.81 348.442,162.301 348.605,163.81 348.767,171.318 348.929,168.793 349.091,171.81 349.254,169.81 349.416,177.318 349.578,176.301 349.74,176.301 349.903,174.793 350.065,171.318 350.227,172.793 350.389,181.81 350.552,174.301 350.714,174.793 350.876,176.301 351.038,174.793 351.201,180.793 351.363,168.793" stroke="#0000ff" stroke-linecap="butt" stroke-linejoin="round" stroke-width="0.5"/>
  </g>
 </g>
</svg>
